<?xml version="1.0" encoding="utf-8"?>
<!-- Generator: Adobe Illustrator 24.3.0, SVG Export Plug-In . SVG Version: 6.00 Build 0)  -->
<svg version="1.1" id="Layer_1" xmlns="http://www.w3.org/2000/svg" xmlns:xlink="http://www.w3.org/1999/xlink" x="0px" y="0px"
	 viewBox="0 0 100 100" style="enable-background:new 0 0 100 100;" xml:space="preserve">
<style type="text/css">
	.st0{display:none;}
	.st1{display:inline;fill:none;}
	.st2{display:inline;}
	.st3{fill:none;stroke:#000000;stroke-width:2;stroke-linecap:round;stroke-linejoin:round;}
	.st4{fill:none;}
</style>
<g id="Group_5399" transform="translate(-871 -1049)" class="st0">
	<rect id="Rectangle_1843" x="891" y="1059" class="st1" width="60" height="60"/>
	<g id="Group_5402" transform="translate(558.47 59.5)" class="st2">
		<g id="Group_5401" transform="translate(318 992.5)">
			<rect id="Rectangle_2474" x="20" y="10.5" class="st3" width="49.1" height="34.3"/>
			<rect id="Rectangle_2475" x="25" y="15.5" class="st3" width="39.1" height="24.3"/>
			<g id="Group_5400" transform="translate(6.863)">
				<path id="Path_2467" class="st3" d="M20,10"/>
				<path id="Path_2468" class="st3" d="M55.3,10"/>
			</g>
			<path id="Rectangle_2476" class="st3" d="M32.5,27.8h10c2.2,0,4,1.8,4,4v4c0,2.2-1.8,4-4,4h-10c-2.2,0-4-1.8-4-4v-4
				C28.5,29.6,30.3,27.8,32.5,27.8z"/>
			<line id="Line_467" class="st3" x1="34.4" y1="39.8" x2="34.4" y2="27.8"/>
			<line id="Line_468" class="st3" x1="39.5" y1="39.8" x2="39.5" y2="27.8"/>
		</g>
		<line id="Line_469" class="st3" x1="356.1" y1="1037.3" x2="345.7" y2="1055.5"/>
		<line id="Line_470" class="st3" x1="369.2" y1="1037.3" x2="379.6" y2="1055.5"/>
	</g>
</g>
<g id="그룹_4961" transform="translate(-1107 -1049)" class="st0">
	<rect id="사각형_1846" x="1127" y="1059" class="st1" width="60" height="60"/>
	<g id="그룹_4953" transform="translate(-34.622 1570.14)" class="st2">
		<path id="패스_727" d="M1211-481.4h-3.8l0-4.6h7.3c0.5,0,0.9-0.4,0.9-0.9c0,0,0,0,0,0v-6.2h-1.8v5.3h-6.4l0-8.5
			c0-1.4-0.5-2.7-1.5-3.6c-1-1-2.3-1.5-3.6-1.5h-20.8c-1.4,0-2.7,0.5-3.6,1.5c-1,1-1.5,2.3-1.5,3.6l0,8.5h-6.2v-6h-1.8v6.9
			c0,0.5,0.4,0.9,0.9,0.9l0,0h7.1l0,4.6h-3.7c-3,0-4.9,2.3-4.9,5.8v16.1h5.1c0.4,2.9,2.9,5,5.8,5c2.9,0,5.4-2.1,5.8-5h14.8
			c0.4,2.9,2.9,5,5.8,5c2.9,0,5.4-2.1,5.8-5h5.1v-16.1C1216-479.1,1214-481.4,1211-481.4z M1178.6-456.3c-1.9,0-3.6-1.3-4-3.2h8
			C1182.2-457.6,1180.5-456.3,1178.6-456.3L1178.6-456.3z M1205-456.3c-1.9,0-3.6-1.3-4-3.2h8C1208.6-457.6,1206.9-456.3,1205-456.3
			L1205-456.3z M1214.2-461.3h-44.7v-3.7h44.7V-461.3z M1169.4-466.8v-8.8c0-0.9,0.2-4,3.1-4h5.5l0-16.8c0-0.9,0.3-1.7,1-2.3
			c0.6-0.6,1.5-1,2.3-1h20.8c0.9,0,1.7,0.3,2.3,1c0.6,0.6,1,1.5,1,2.3l-0.1,16.8h5.6c2.9,0,3.1,3.1,3.1,4v8.8L1169.4-466.8z"/>
		<path id="패스_728" d="M1201.4-495.5h-19.2c-0.5,0-0.9,0.4-0.9,0.9c0,0,0,0,0,0v11c0,0.5,0.4,0.9,0.9,0.9l0,0h19.2
			c0.5,0,0.9-0.4,0.9-0.9c0,0,0,0,0,0v-11C1202.3-495.1,1201.9-495.5,1201.4-495.5z M1200.5-484.6h-17.4v-9.2h17.4V-484.6z"/>
		<path id="패스_729" d="M1170.1-501.2c-0.1-2.2,1.7-4,3.9-4.1h35.8c2.2,0.1,4,1.9,3.9,4.1v2.9h1.8v-2.9c0.1-3.2-2.5-5.8-5.7-5.9
			H1174c-3.2,0.1-5.8,2.7-5.7,5.9v2.9h1.8L1170.1-501.2z"/>
		<path id="패스_730" d="M1176.5-476.8c-2.1-0.1-4,1.5-4.1,3.6c-0.1,2.1,1.5,4,3.6,4.1c0.1,0,0.2,0,0.3,0c2,0,3.7-1.6,3.9-3.6l0,0
			C1180.3-474.8,1178.7-476.7,1176.5-476.8z M1176.1-470.9c-1.1-0.1-2-1.1-1.9-2.2c0.1-1.1,1-1.9,2.1-1.9c0,0,0.1,0,0.1,0
			c1.1,0.1,2,1.1,1.9,2.2C1178.3-471.7,1177.3-470.8,1176.1-470.9L1176.1-470.9z"/>
		<path id="패스_731" d="M1207.5-476.8c-2.1-0.1-4,1.5-4.1,3.6c-0.1,1,0.3,2,0.9,2.8c0.7,0.8,1.6,1.2,2.7,1.3c0.1,0,0.2,0,0.3,0
			c0.9,0,1.8-0.3,2.5-1c0.8-0.7,1.2-1.6,1.3-2.7C1211.3-474.8,1209.7-476.7,1207.5-476.8z M1209.3-472.8c0,0.5-0.3,1.1-0.7,1.4
			c-0.4,0.4-0.9,0.5-1.5,0.5c-0.5,0-1.1-0.3-1.4-0.7c-0.4-0.4-0.5-1-0.5-1.5c0.1-1.1,1-1.9,2.1-1.9c0,0,0.1,0,0.1,0
			C1208.6-474.9,1209.4-474,1209.3-472.8L1209.3-472.8z"/>
		<rect id="사각형_1833" x="1185.2" y="-474.1" width="13.2" height="1.8"/>
	</g>
</g>
<g>
	<path d="M49.7,87.2c0,0.1-0.1,0.1-0.1,0.1H37.3c-0.1,0-0.1,0-0.1-0.1c0,0-0.1-0.1-0.1-0.2v-0.9c0-0.1,0-0.1,0.1-0.1
		c0,0,0.1-0.1,0.1-0.1h5.3v-1.2c-0.5-0.1-0.9-0.2-1.2-0.3c-0.4-0.1-0.7-0.3-0.9-0.5s-0.5-0.4-0.6-0.7c-0.1-0.3-0.2-0.6-0.2-0.9
		c0-0.4,0.1-0.7,0.3-1s0.5-0.6,0.8-0.8c0.3-0.2,0.7-0.4,1.2-0.5s1-0.2,1.5-0.2c0.6,0,1.1,0.1,1.5,0.2s0.9,0.3,1.2,0.5
		c0.3,0.2,0.6,0.5,0.8,0.8c0.2,0.3,0.3,0.6,0.3,1c0,0.3-0.1,0.6-0.2,0.9c-0.1,0.3-0.3,0.5-0.6,0.7s-0.6,0.4-1,0.5
		c-0.4,0.1-0.8,0.2-1.2,0.3v1.2h5.3c0,0,0.1,0,0.1,0.1s0.1,0.1,0.1,0.1V87C49.7,87.1,49.7,87.1,49.7,87.2z M48.6,79.4
		c0,0-0.1,0.1-0.1,0.1h-10c0,0-0.1,0-0.1-0.1s-0.1-0.1-0.1-0.2v-0.8c0,0,0-0.1,0.1-0.1c0.1,0,0.1-0.1,0.1-0.1h9.9
		c0.1,0,0.1,0,0.1,0.1s0.1,0.1,0.1,0.1v0.8C48.6,79.3,48.6,79.3,48.6,79.4z M45.7,77.5c0,0-0.1,0.1-0.2,0.1h-4.2c0,0-0.1,0-0.1-0.1
		s-0.1-0.1-0.1-0.2v-0.9c0-0.1,0-0.1,0.1-0.2s0.1-0.1,0.1-0.1h4.2c0.1,0,0.1,0,0.2,0.1c0,0.1,0.1,0.1,0.1,0.2v0.8
		C45.8,77.4,45.7,77.5,45.7,77.5z M43.4,81.1c-0.3,0-0.6,0-0.9,0.1c-0.3,0.1-0.5,0.1-0.7,0.3c-0.2,0.1-0.4,0.2-0.5,0.4
		s-0.2,0.3-0.2,0.5c0,0.2,0.1,0.4,0.2,0.5c0.1,0.2,0.3,0.3,0.5,0.4c0.2,0.1,0.4,0.2,0.7,0.3c0.3,0.1,0.6,0.1,0.9,0.1
		c0.3,0,0.6,0,0.9-0.1c0.3-0.1,0.5-0.1,0.7-0.3c0.2-0.1,0.4-0.2,0.5-0.4c0.1-0.2,0.2-0.3,0.2-0.5c0-0.2-0.1-0.4-0.2-0.5
		c-0.1-0.2-0.3-0.3-0.5-0.4c-0.2-0.1-0.4-0.2-0.7-0.3C44,81.1,43.7,81.1,43.4,81.1z"/>
	<path d="M57,82.4c-0.1,0-0.1,0.1-0.2,0.1c-0.3,0.1-0.7,0.2-1.1,0.2c-0.4,0.1-0.8,0.1-1.3,0.1c-0.4,0-0.9,0.1-1.3,0.1
		c-0.4,0-0.8,0-1.1,0c-0.7,0-1-0.4-1-1v-4.4c0-0.3,0.1-0.6,0.2-0.7c0.1-0.1,0.4-0.2,0.7-0.2h3.9c0.1,0,0.1,0,0.1,0.1
		c0,0,0.1,0.1,0.1,0.1v0.9c0,0.1-0.1,0.2-0.2,0.2h-2.9c-0.1,0-0.2,0-0.2,0c0,0-0.1,0.1-0.1,0.2v0.9c0.5,0,0.9,0,1.4,0
		c0.5,0,0.9,0,1.3-0.1c0,0,0.1,0,0.1,0s0.1,0.1,0.1,0.1l0,0.8c0,0.1,0,0.1,0,0.2c0,0-0.1,0.1-0.1,0.1c-0.4,0-0.9,0.1-1.4,0.1
		c-0.5,0-0.9,0-1.4,0v0.9c0,0.1,0,0.2,0.1,0.3c0.1,0,0.2,0.1,0.3,0.1c0.2,0,0.5,0,0.8,0c0.3,0,0.6,0,1-0.1c0.3,0,0.7-0.1,1-0.1
		c0.3,0,0.6-0.1,0.8-0.1c0.1,0,0.1,0,0.2,0s0.1,0.1,0.1,0.1l0.1,0.7C57.1,82.3,57.1,82.3,57,82.4z M62.5,89.3c0,0-0.1,0.1-0.1,0.1
		h-8.1c-0.4,0-0.6-0.1-0.7-0.2c-0.1-0.1-0.2-0.4-0.2-0.7v-1.6c0-0.3,0.1-0.5,0.2-0.6s0.4-0.2,0.7-0.2h6.2c0.1,0,0.1,0,0.1,0
		c0,0,0-0.1,0-0.2v-0.4c0-0.1,0-0.2,0-0.2c0,0-0.1,0-0.2,0h-6.9c0,0-0.1,0-0.1-0.1s-0.1-0.1-0.1-0.1v-0.9c0,0,0-0.1,0.1-0.1
		s0.1-0.1,0.1-0.1h7.7c0.4,0,0.6,0.1,0.8,0.2c0.1,0.1,0.2,0.3,0.2,0.7v1.6c0,0.3-0.1,0.6-0.2,0.7c-0.1,0.1-0.4,0.2-0.8,0.2h-6.1
		c-0.1,0-0.1,0-0.2,0c0,0,0,0.1,0,0.2v0.4c0,0.1,0,0.1,0,0.1c0,0,0.1,0,0.2,0h7.3c0,0,0.1,0,0.1,0.1c0,0,0.1,0.1,0.1,0.1v0.9
		C62.5,89.2,62.5,89.3,62.5,89.3z M58.2,76.3h1.1c0.1,0,0.2,0.1,0.2,0.2V83c0,0.1-0.1,0.2-0.2,0.2h-1.1c-0.1,0-0.2-0.1-0.2-0.2v-2.7
		h-1.6c-0.1,0-0.1,0-0.1-0.1c0,0-0.1-0.1-0.1-0.1v-0.9c0,0,0-0.1,0.1-0.1c0,0,0.1,0,0.1,0H58v-2.5C58,76.4,58.1,76.3,58.2,76.3z
		 M60.8,76.1H62c0,0,0.1,0,0.1,0.1c0,0,0.1,0.1,0.1,0.1v6.9c0,0,0,0.1-0.1,0.1c0,0-0.1,0.1-0.1,0.1h-1.2c-0.1,0-0.2-0.1-0.2-0.2
		v-6.9C60.6,76.2,60.6,76.1,60.8,76.1z"/>
</g>
<g id="그룹_4963" transform="translate(-1343 -1049)">
	<rect id="사각형_1849" x="1363" y="1059" class="st4" width="60" height="60"/>
	<g id="그룹_4955" transform="translate(-105.957 1569.125)">
		<path id="패스_734" d="M1490.2-460.3c0.5,0,0.9-0.4,0.9-0.9c0,0,0,0,0,0v-38.7c0-0.5-0.4-0.9-0.9-0.9l0,0h-7.6
			c-0.5,0-0.9,0.4-0.9,0.9c0,0,0,0,0,0v38.7c0,0.5,0.4,0.9,0.9,0.9l0,0H1490.2z M1483.4-499h5.8v36.9h-5.8V-499z"/>
		<path id="패스_735" d="M1496-493.6h13c0.5,0,0.9-0.4,0.9-0.9c0,0,0,0,0,0v-5.4c0-0.5-0.4-0.9-0.9-0.9l0,0h-13
			c-0.5,0-0.9,0.4-0.9,0.9c0,0,0,0,0,0v5.4C1495.1-494,1495.5-493.6,1496-493.6L1496-493.6z M1496.9-499h11.2v3.6h-11.2V-499z"/>
		<path id="패스_736" d="M1495.1-483.7c0,0.5,0.4,0.9,0.9,0.9l0,0h13c0.5,0,0.9-0.4,0.9-0.9c0,0,0,0,0,0v-5.4
			c0-0.5-0.4-0.9-0.9-0.9l0,0h-13c-0.5,0-0.9,0.4-0.9,0.9c0,0,0,0,0,0V-483.7z M1496.9-488.2h11.2v3.6h-11.2V-488.2z"/>
		<path id="패스_737" d="M1495.1-472.9c0,0.5,0.4,0.9,0.9,0.9l0,0h13c0.5,0,0.9-0.4,0.9-0.9c0,0,0,0,0,0v-5.4
			c0-0.5-0.4-0.9-0.9-0.9l0,0h-13c-0.5,0-0.9,0.4-0.9,0.9c0,0,0,0,0,0V-472.9z M1496.9-477.4h11.2v3.6h-11.2V-477.4z"/>
		<path id="패스_738" d="M1495.1-462.1c0,0.5,0.4,0.9,0.9,0.9l0,0h13c0.5,0,0.9-0.4,0.9-0.9c0,0,0,0,0,0v-5.4
			c0-0.5-0.4-0.9-0.9-0.9l0,0h-13c-0.5,0-0.9,0.4-0.9,0.9c0,0,0,0,0,0V-462.1z M1496.9-466.6h11.2v3.6h-11.2V-466.6z"/>
		<path id="패스_739" d="M1523.9-501.7h-6.4c-0.5-3.1-3.2-5.4-6.4-5.4h-30.7c-3.6,0-6.5,2.9-6.5,6.5v39.9c0,0.5,0.4,0.9,0.9,0.9
			l0,0c0.5,0,0.9-0.4,0.9-0.9c0,0,0,0,0,0v-39.9c0-2.6,2.1-4.7,4.7-4.7h30.7c2.6,0,4.7,2.1,4.7,4.7v39.9c0,0.5,0.4,0.9,0.9,0.9l0,0
			c0.5,0,0.9-0.4,0.9-0.9c0,0,0,0,0,0v-16.6h6.3c0.5,0,0.9-0.4,0.9-0.9c0,0,0,0,0,0v-22.5C1524.8-501.3,1524.4-501.7,1523.9-501.7z
			 M1523-479.2h-5.4v-20.7h5.4V-479.2z"/>
		<path id="패스_740" d="M1523.9-456.3h-49c-0.5,0-0.9,0.4-0.9,0.9c0,0,0,0,0,0c0,0.5,0.4,0.9,0.9,0.9l0,0h49
			c0.5,0,0.9-0.4,0.9-0.9c0,0,0,0,0,0C1524.8-455.9,1524.4-456.3,1523.9-456.3L1523.9-456.3z"/>
	</g>
</g>
</svg>
