<?xml version="1.0" encoding="utf-8"?>
<!-- Generator: Adobe Illustrator 24.3.0, SVG Export Plug-In . SVG Version: 6.00 Build 0)  -->
<svg version="1.1" id="Layer_1" xmlns="http://www.w3.org/2000/svg" xmlns:xlink="http://www.w3.org/1999/xlink" x="0px" y="0px"
	 viewBox="0 0 100 100" style="enable-background:new 0 0 100 100;" xml:space="preserve">
<style type="text/css">
	.st0{fill:none;}
	.st1{enable-background:new    ;}
</style>
<g id="그룹_4960" transform="translate(-989 -1049)">
	<rect id="사각형_1842" x="1009" y="1058" class="st0" width="60" height="60"/>
	<path id="패스_741" d="M1064.8,1065.7h-32.5v-4.7H1019v4.7h-5.1v9.9h5.1v30.1h-5.1v9h29.2v-9h-10.9v-30.1h12.2v5.4h6.3v4.6
		c-1.5,0.4-2.6,1.9-2.6,3.5c0,0.8,0.3,1.7,0.8,2.3c-2.5,1.1-4.2,3.5-4.2,6.3c0,3.8,3,6.8,6.8,6.8s6.8-3.1,6.8-6.8v-0.9h-1.8v0.9
		c0,2.8-2.2,5-5,5s-5-2.2-5-5s2.2-5,5-5h0.9v-0.1c1.7-0.3,2.9-1.8,2.9-3.5s-1.2-3.1-2.8-3.5v-4.6h6.7v-5.4h5.4L1064.8,1065.7z
		 M1053.7,1089.1c0,1-0.8,1.8-1.8,1.8s-1.8-0.8-1.8-1.8s0.8-1.8,1.8-1.8l0,0C1052.9,1087.3,1053.7,1088.1,1053.7,1089.1
		L1053.7,1089.1z M1030,1073.6l-9.1,9.1v-18.2L1030,1073.6z M1020.9,1086.1l9.1,9.1l-9.1,9.1V1086.1z M1021.7,1084.4l8.8-8.9v17.7
		L1021.7,1084.4z M1030.6,1071.7l-8.8-8.9h8.8V1071.7z M1015.8,1073.8v-6.3h3.3v6.3H1015.8z M1041.4,1107.6v5.4h-25.6v-5.4H1041.4
		L1041.4,1107.6z M1022,1105.8l8.6-8.6v8.6H1022z M1057.6,1079.2h-11.2v-3.6h11.2V1079.2z M1063,1073.8h-30.7v-6.3h30.7V1073.8z"/>
</g>
<g class="st1">
	<path d="M36.9,84.2l-0.4-0.7c0-0.1,0-0.1,0-0.2c0-0.1,0.1-0.1,0.2-0.2c1.2-0.6,2.2-1.2,2.9-2c0.7-0.7,1.2-1.6,1.5-2.5
		c0-0.1,0.1-0.3,0.1-0.3c0-0.1-0.1-0.1-0.3-0.1h-3.8c-0.1,0-0.1,0-0.1-0.1c0,0,0-0.1,0-0.1v-0.9c0-0.1,0.1-0.2,0.2-0.2h4.7
		c0.4,0,0.7,0.1,0.9,0.2s0.2,0.3,0.2,0.6c0,0,0,0.1,0,0.2c0,0.1,0,0.2,0,0.2c0,0.1,0,0.1,0,0.2c0,0.1,0,0.1,0,0.1
		c-0.4,1.3-1,2.5-1.9,3.4c-0.9,1-2.1,1.8-3.6,2.4C37.1,84.4,37,84.4,36.9,84.2z M47.4,89.1c0,0-0.1,0-0.1,0H40
		c-0.4,0-0.7-0.1-0.8-0.2s-0.2-0.4-0.2-0.8v-3.1c0,0,0-0.1,0.1-0.1s0.1-0.1,0.1-0.1h1.2c0.1,0,0.1,0,0.1,0.1s0.1,0.1,0.1,0.1v2.5
		c0,0.1,0,0.2,0.1,0.2c0,0,0.1,0,0.2,0h6.5c0,0,0.1,0,0.1,0.1c0,0,0.1,0.1,0.1,0.1v1C47.5,89.1,47.5,89.1,47.4,89.1z M42.7,81.4v-1
		c0,0,0-0.1,0.1-0.1c0,0,0.1,0,0.1,0h2.5v-3.9c0-0.1,0.1-0.2,0.2-0.2h1.2c0.1,0,0.2,0.1,0.2,0.2v9.1c0,0.1-0.1,0.2-0.2,0.2h-1.2
		c-0.1,0-0.2-0.1-0.2-0.2v-3.8h-2.5c0,0-0.1,0-0.1,0C42.8,81.5,42.7,81.4,42.7,81.4z"/>
	<path d="M50,83.1l-0.6-0.7c-0.1-0.1-0.1-0.1-0.1-0.2c0-0.1,0.1-0.1,0.1-0.2c1.1-0.6,1.9-1.4,2.4-2.3c0.5-0.9,0.7-2,0.7-3.3
		c0-0.1,0-0.1,0.1-0.2c0.1,0,0.1-0.1,0.1-0.1l1.2,0.1c0.1,0,0.2,0.1,0.2,0.2c0,0.8-0.1,1.5-0.3,2.2c0.1,0.3,0.3,0.6,0.6,0.9
		c0.2,0.3,0.5,0.6,0.7,0.8c0.3,0.2,0.5,0.5,0.8,0.6c0.3,0.2,0.5,0.3,0.8,0.4c0.2,0.1,0.2,0.2,0.1,0.3l-0.5,0.8
		c-0.1,0.1-0.2,0.2-0.4,0.1c-0.6-0.2-1.1-0.6-1.6-1s-0.9-0.9-1.2-1.4c-0.7,1.2-1.6,2.1-2.9,2.8C50.3,83.2,50.1,83.2,50,83.1z
		 M60.5,89.3c0,0-0.1,0.1-0.1,0.1h-7.6c-0.4,0-0.6-0.1-0.7-0.2c-0.1-0.1-0.2-0.4-0.2-0.7v-1.7c0-0.3,0.1-0.5,0.2-0.6
		s0.4-0.2,0.7-0.2h5.7c0.1,0,0.1,0,0.1,0s0-0.1,0-0.2v-0.5c0-0.1,0-0.2,0-0.2c0,0-0.1,0-0.2,0h-6.4c0,0-0.1,0-0.1,0
		c0,0-0.1-0.1-0.1-0.1V84c0,0,0-0.1,0.1-0.1s0.1-0.1,0.1-0.1h7.2c0.4,0,0.6,0.1,0.8,0.2s0.2,0.4,0.2,0.7v1.7c0,0.3-0.1,0.6-0.2,0.7
		c-0.1,0.1-0.4,0.2-0.8,0.2h-5.6c-0.1,0-0.1,0-0.1,0c0,0,0,0.1,0,0.1v0.6c0,0.1,0,0.1,0,0.1c0,0,0.1,0,0.2,0h6.7c0,0,0.1,0,0.1,0.1
		s0.1,0.1,0.1,0.1v0.9C60.6,89.2,60.6,89.3,60.5,89.3z M55.9,79.6v-1c0,0,0-0.1,0.1-0.1c0,0,0.1,0,0.1,0h2.5v-2.2
		c0-0.1,0.1-0.2,0.2-0.2H60c0.1,0,0.2,0.1,0.2,0.2V83c0,0,0,0.1-0.1,0.1s-0.1,0.1-0.1,0.1h-1.2c0,0-0.1,0-0.1-0.1S58.6,83,58.6,83
		v-3.2h-2.5c-0.1,0-0.1,0-0.1,0C56,79.7,55.9,79.7,55.9,79.6z"/>
</g>
</svg>
