<?xml version="1.0" encoding="utf-8"?>
<!-- Generator: Adobe Illustrator 24.3.0, SVG Export Plug-In . SVG Version: 6.00 Build 0)  -->
<svg version="1.1" id="Layer_1" xmlns="http://www.w3.org/2000/svg" xmlns:xlink="http://www.w3.org/1999/xlink" x="0px" y="0px"
	 viewBox="0 0 100 100" style="enable-background:new 0 0 100 100;" xml:space="preserve">
<style type="text/css">
	.st0{fill:none;}
	.st1{fill:none;stroke:#000000;stroke-width:2;stroke-linecap:round;stroke-linejoin:round;}
</style>
<g id="Group_5399" transform="translate(-871 -1049)">
	<g id="Rectangle_1843">
		<rect x="891" y="1059" class="st0" width="60" height="60"/>
	</g>
	<g id="Group_5402" transform="translate(558.47 59.5)">
		<g id="Group_5401" transform="translate(318 992.5)">
			<g id="Rectangle_2474">
				<path d="M69.1,45.8H20c-0.6,0-1-0.4-1-1V10.5c0-0.6,0.4-1,1-1h49.1c0.6,0,1,0.4,1,1v34.3C70.1,45.4,69.7,45.8,69.1,45.8z
					 M21,43.8h47.1V11.5H21V43.8z"/>
			</g>
			<g id="Rectangle_2475">
				<path d="M64.1,40.8H25c-0.6,0-1-0.4-1-1V15.5c0-0.6,0.4-1,1-1h39.1c0.6,0,1,0.4,1,1v24.3C65.1,40.4,64.7,40.8,64.1,40.8z
					 M26,38.8h37.1V16.5H26V38.8z"/>
			</g>
			<g id="Group_5400" transform="translate(6.863)">
				<g id="Path_2467">
					<path class="st1" d="M20,10"/>
				</g>
				<g id="Path_2468">
					<path class="st1" d="M55.3,10"/>
				</g>
			</g>
			<g id="Rectangle_2476">
				<path d="M42.5,40.8h-10c-2.8,0-5-2.2-5-5v-4c0-2.8,2.2-5,5-5h10c2.8,0,5,2.2,5,5v4C47.5,38.6,45.3,40.8,42.5,40.8z M32.5,28.8
					c-1.7,0-3,1.3-3,3v4c0,1.7,1.3,3,3,3h10c1.7,0,3-1.3,3-3v-4c0-1.7-1.3-3-3-3H32.5z"/>
			</g>
			<g id="Line_467">
				<path d="M34.4,40.8c-0.6,0-1-0.4-1-1v-12c0-0.6,0.4-1,1-1s1,0.4,1,1v12C35.4,40.4,35,40.8,34.4,40.8z"/>
			</g>
			<g id="Line_468">
				<path d="M39.5,40.8c-0.6,0-1-0.4-1-1v-12c0-0.6,0.4-1,1-1s1,0.4,1,1v12C40.5,40.4,40.1,40.8,39.5,40.8z"/>
			</g>
		</g>
		<g id="Line_469">
			<path d="M345.7,1056.5c-0.2,0-0.3,0-0.5-0.1c-0.5-0.3-0.6-0.9-0.4-1.4l10.4-18.2c0.3-0.5,0.9-0.6,1.4-0.4
				c0.5,0.3,0.6,0.9,0.4,1.4l-10.4,18.2C346.4,1056.3,346,1056.5,345.7,1056.5z"/>
		</g>
		<g id="Line_470">
			<path d="M379.6,1056.5c-0.3,0-0.7-0.2-0.9-0.5l-10.4-18.2c-0.3-0.5-0.1-1.1,0.4-1.4c0.5-0.3,1.1-0.1,1.4,0.4l10.4,18.2
				c0.3,0.5,0.1,1.1-0.4,1.4C379.9,1056.5,379.8,1056.5,379.6,1056.5z"/>
		</g>
	</g>
</g>
<g>
	<path d="M45.3,79.2L45.3,79.2l-7.5,0.1c-0.1,0-0.1,0-0.2-0.1c0,0-0.1-0.1-0.1-0.2v-0.8c0,0,0-0.1,0.1-0.1c0.1-0.1,0.1-0.1,0.2-0.1
		h7.4c0.1,0,0.1,0,0.1,0.1c0,0,0.1,0.1,0.1,0.2V79C45.3,79.1,45.3,79.1,45.3,79.2z M41.5,79.7c0.4,0,0.8,0.1,1.2,0.2s0.7,0.3,1,0.5
		s0.5,0.5,0.6,0.7c0.2,0.3,0.2,0.6,0.2,0.9s-0.1,0.7-0.2,1s-0.4,0.5-0.7,0.7s-0.6,0.4-1,0.5s-0.8,0.2-1.2,0.2s-0.8-0.1-1.2-0.2
		s-0.7-0.3-1-0.5s-0.5-0.5-0.6-0.7c-0.2-0.3-0.2-0.6-0.2-1c0-0.3,0.1-0.7,0.2-0.9c0.2-0.3,0.4-0.5,0.6-0.7c0.3-0.2,0.6-0.4,1-0.5
		C40.7,79.7,41.1,79.7,41.5,79.7z M43.5,77.4c0,0.1-0.1,0.1-0.2,0.1h-3.7c0,0-0.1,0-0.1-0.1s-0.1-0.1-0.1-0.2v-0.8
		c0-0.1,0-0.1,0.1-0.2s0.1-0.1,0.1-0.1h3.7c0.1,0,0.1,0,0.2,0.1c0,0,0.1,0.1,0.1,0.2v0.8C43.5,77.3,43.5,77.3,43.5,77.4z M47.8,89.3
		L47.8,89.3l-1.3,0.1c-0.1,0-0.1,0-0.1-0.1s-0.1-0.1-0.1-0.1v-2.4c0-0.1,0-0.2-0.1-0.2c0,0-0.1,0-0.2,0h-6.3h-0.1l-0.1-0.1v-1
		c0-0.1,0-0.1,0.1-0.1h0.1H47c0.4,0,0.6,0.1,0.7,0.2c0.1,0.1,0.2,0.4,0.2,0.8v3C47.8,89.2,47.8,89.3,47.8,89.3z M41.5,80.9
		c-0.4,0-0.8,0.1-1.1,0.3S40,81.7,40,82c0,0.2,0,0.3,0.1,0.5s0.2,0.3,0.3,0.4s0.3,0.2,0.5,0.2c0.2,0.1,0.4,0.1,0.6,0.1
		c0.4,0,0.8-0.1,1.1-0.3c0.3-0.2,0.4-0.5,0.4-0.8s-0.1-0.6-0.4-0.8C42.3,81,42,80.9,41.5,80.9z M49.9,81.3L49.9,81.3l-2,0.1v3.1
		c0,0.1-0.1,0.2-0.2,0.2h-1.2c-0.1,0-0.2-0.1-0.2-0.2v-8.1c0-0.1,0.1-0.2,0.2-0.2h1.2c0.1,0,0.2,0.1,0.2,0.2V80h1.9
		c0.1,0,0.1,0,0.1,0l0.1,0.1v1C49.9,81.3,49.9,81.3,49.9,81.3z"/>
	<path d="M59.4,82.9L59.4,82.9c-0.4,0.1-0.7,0.2-1,0.2c-0.3,0-0.6,0.1-1,0.1c-0.3,0-0.7,0.1-1,0.1s-0.6,0-0.9,0v2
		c0,0.1,0,0.1-0.1,0.1l-0.1,0.1h-1.2c-0.1,0-0.1,0-0.1-0.1s-0.1-0.1-0.1-0.1v-1.9c-0.3,0-0.6,0-0.9,0s-0.6,0-0.9,0
		c-0.3,0-0.5,0-0.8,0s-0.5,0-0.7,0c-0.1,0-0.1,0-0.1-0.1s-0.1-0.1-0.1-0.2v-0.9c0-0.1,0-0.1,0.1-0.1s0.1-0.1,0.1-0.1
		c0.6,0,1.3,0,2.1,0s1.5,0,2.3-0.1c0.8,0,1.5-0.1,2.2-0.1c0.7-0.1,1.3-0.1,1.8-0.2h0.1l0.1,0.1l0.1,0.8
		C59.5,82.8,59.5,82.9,59.4,82.9z M54.8,76.3c0.5,0,0.9,0.1,1.3,0.2c0.4,0.1,0.7,0.3,1,0.5s0.5,0.5,0.7,0.8s0.2,0.6,0.2,1
		s-0.1,0.7-0.2,1c-0.2,0.3-0.4,0.6-0.7,0.8s-0.6,0.4-1,0.5s-0.8,0.2-1.3,0.2s-0.9-0.1-1.3-0.2c-0.4-0.1-0.7-0.3-1-0.5
		s-0.5-0.5-0.7-0.8s-0.2-0.7-0.2-1s0.1-0.7,0.2-1c0.2-0.3,0.4-0.6,0.7-0.8c0.3-0.2,0.6-0.4,1-0.5S54.3,76.3,54.8,76.3z M61.8,89.1
		L61.8,89.1h-8c-0.4,0-0.7-0.1-0.9-0.2s-0.2-0.4-0.2-0.8v-2c0,0,0-0.1,0.1-0.1s0.1-0.1,0.1-0.1h1.2c0.1,0,0.1,0,0.1,0.1
		s0.1,0.1,0.1,0.1v1.4c0,0.1,0,0.2,0.1,0.2s0.1,0,0.2,0h7.1c0,0,0.1,0,0.1,0.1l0.1,0.1v1C61.9,89,61.9,89.1,61.8,89.1z M54.8,77.5
		c-0.2,0-0.4,0-0.6,0.1s-0.4,0.2-0.5,0.3c-0.1,0.1-0.3,0.3-0.4,0.4c-0.1,0.2-0.1,0.3-0.1,0.5s0,0.4,0.1,0.5c0.1,0.2,0.2,0.3,0.4,0.4
		c0.1,0.1,0.3,0.2,0.5,0.3s0.4,0.1,0.6,0.1c0.2,0,0.5,0,0.7-0.1s0.4-0.2,0.5-0.3c0.2-0.1,0.3-0.3,0.4-0.4c0.1-0.2,0.1-0.3,0.1-0.5
		s0-0.4-0.1-0.5c-0.1-0.2-0.2-0.3-0.4-0.4s-0.3-0.2-0.5-0.3S55,77.5,54.8,77.5z M61.4,86.6h-1.2c-0.1,0-0.2-0.1-0.2-0.2v-1.3h-2.4
		c0,0-0.1,0-0.1-0.1l-0.1-0.1V84c0,0,0-0.1,0.1-0.1h0.1H60v-7.6c0-0.1,0.1-0.2,0.2-0.2h1.2c0.1,0,0.2,0.1,0.2,0.2v10.1
		C61.6,86.5,61.5,86.6,61.4,86.6z"/>
</g>
</svg>
