<?xml version="1.0" encoding="utf-8"?>
<!-- Generator: Adobe Illustrator 24.3.0, SVG Export Plug-In . SVG Version: 6.00 Build 0)  -->
<svg version="1.1" id="Layer_1" xmlns="http://www.w3.org/2000/svg" xmlns:xlink="http://www.w3.org/1999/xlink" x="0px" y="0px"
	 viewBox="0 0 100 100" style="enable-background:new 0 0 100 100;" xml:space="preserve">
<style type="text/css">
	.st0{display:none;}
	.st1{display:inline;fill:none;}
	.st2{display:inline;}
	.st3{fill:none;stroke:#000000;stroke-width:2;stroke-linecap:round;stroke-linejoin:round;}
	.st4{fill:none;}
</style>
<g id="Group_5399" transform="translate(-871 -1049)" class="st0">
	<rect id="Rectangle_1843" x="891" y="1059" class="st1" width="60" height="60"/>
	<g id="Group_5402" transform="translate(558.47 59.5)" class="st2">
		<g id="Group_5401" transform="translate(318 992.5)">
			<rect id="Rectangle_2474" x="20" y="10.5" class="st3" width="49.1" height="34.3"/>
			<rect id="Rectangle_2475" x="25" y="15.5" class="st3" width="39.1" height="24.3"/>
			<g id="Group_5400" transform="translate(6.863)">
				<path id="Path_2467" class="st3" d="M20,10"/>
				<path id="Path_2468" class="st3" d="M55.3,10"/>
			</g>
			<path id="Rectangle_2476" class="st3" d="M32.5,27.8h10c2.2,0,4,1.8,4,4v4c0,2.2-1.8,4-4,4h-10c-2.2,0-4-1.8-4-4v-4
				C28.5,29.6,30.3,27.8,32.5,27.8z"/>
			<line id="Line_467" class="st3" x1="34.4" y1="39.8" x2="34.4" y2="27.8"/>
			<line id="Line_468" class="st3" x1="39.5" y1="39.8" x2="39.5" y2="27.8"/>
		</g>
		<line id="Line_469" class="st3" x1="356.1" y1="1037.3" x2="345.7" y2="1055.5"/>
		<line id="Line_470" class="st3" x1="369.2" y1="1037.3" x2="379.6" y2="1055.5"/>
	</g>
</g>
<g>
	<path d="M33.7,84.5c0,0.1-0.1,0.1-0.1,0.1h-3v4.5c0,0.1-0.1,0.2-0.2,0.2h-1.2c-0.1,0-0.2-0.1-0.2-0.2v-4.5H26v4.5
		c0,0.1-0.1,0.2-0.2,0.2h-1.2c-0.1,0-0.2-0.1-0.2-0.2v-4.5h-3c-0.1,0-0.1,0-0.1-0.1c0-0.1-0.1-0.1-0.1-0.1v-0.9c0-0.1,0-0.1,0.1-0.1
		c0,0,0.1-0.1,0.1-0.1h12.2c0,0,0.1,0,0.1,0.1s0.1,0.1,0.1,0.1v0.9C33.7,84.4,33.7,84.4,33.7,84.5z M27.4,81.9
		c-0.6,0-1.2-0.1-1.7-0.2c-0.6-0.1-1-0.3-1.5-0.6c-0.4-0.2-0.8-0.5-1-0.9c-0.3-0.3-0.4-0.8-0.4-1.2c0-0.5,0.1-0.9,0.4-1.2
		s0.6-0.7,1-0.9c0.4-0.2,0.9-0.4,1.5-0.5c0.6-0.1,1.1-0.2,1.7-0.2s1.2,0.1,1.7,0.2c0.6,0.1,1,0.3,1.5,0.5c0.4,0.2,0.8,0.5,1,0.9
		s0.4,0.8,0.4,1.2c0,0.5-0.1,0.9-0.4,1.2c-0.3,0.4-0.6,0.6-1,0.9c-0.4,0.2-0.9,0.4-1.5,0.6C28.6,81.9,28,81.9,27.4,81.9z M27.4,77.6
		c-0.4,0-0.7,0-1.1,0.1s-0.7,0.2-0.9,0.3c-0.3,0.1-0.5,0.3-0.7,0.5c-0.2,0.2-0.3,0.4-0.3,0.6c0,0.2,0.1,0.4,0.3,0.6
		c0.2,0.2,0.4,0.3,0.7,0.5s0.6,0.2,0.9,0.3c0.3,0.1,0.7,0.1,1.1,0.1c0.4,0,0.7,0,1.1-0.1c0.3-0.1,0.7-0.2,0.9-0.3
		c0.3-0.1,0.5-0.3,0.7-0.5s0.3-0.4,0.3-0.6c0-0.2-0.1-0.4-0.3-0.6s-0.4-0.4-0.7-0.5c-0.3-0.1-0.6-0.2-0.9-0.3S27.8,77.6,27.4,77.6z"
		/>
	<path d="M36.5,81.4c-0.1-0.1-0.2-0.4-0.2-0.7v-3.5c0-0.3,0.1-0.6,0.2-0.7c0.2-0.1,0.4-0.2,0.8-0.2h7.4c0.1,0,0.2,0.1,0.2,0.2v0.9
		c0,0,0,0.1-0.1,0.1c0,0-0.1,0.1-0.1,0.1h-6.6c-0.1,0-0.1,0-0.2,0c0,0,0,0.1,0,0.1v0.7h6.6c0,0,0.1,0,0.1,0.1s0.1,0.1,0.1,0.1v0.8
		c0,0.1,0,0.1-0.1,0.1c0,0-0.1,0-0.1,0h-6.6v0.7c0,0.1,0,0.2,0,0.2c0,0,0.1,0,0.2,0h6.6c0.2,0,0.2,0.1,0.2,0.2v0.8
		c0,0.1-0.1,0.2-0.2,0.2h-3.3v1.2h5.3c0,0,0.1,0,0.1,0.1s0.1,0.1,0.1,0.1v0.8c0,0.1,0,0.1-0.1,0.2s-0.1,0.1-0.1,0.1H34.5
		c-0.1,0-0.2-0.1-0.2-0.2V83c0-0.1,0.1-0.2,0.2-0.2h5.3v-1.2h-2.5C36.9,81.6,36.7,81.6,36.5,81.4z M45,87.1c0,0.7-0.4,1.3-1.1,1.7
		c-0.8,0.4-1.9,0.6-3.3,0.6s-2.5-0.2-3.3-0.6c-0.8-0.4-1.2-1-1.2-1.7c0-0.7,0.4-1.3,1.2-1.7c0.8-0.4,1.9-0.6,3.3-0.6
		s2.5,0.2,3.3,0.6C44.6,85.9,45,86.4,45,87.1z M40.6,86.1c-0.9,0-1.6,0.1-2.1,0.3c-0.5,0.2-0.7,0.5-0.7,0.7s0.2,0.5,0.7,0.7
		c0.5,0.2,1.2,0.3,2.1,0.3s1.6-0.1,2.1-0.3c0.5-0.2,0.7-0.5,0.7-0.7s-0.2-0.5-0.7-0.7C42.2,86.2,41.5,86.1,40.6,86.1z"/>
	<path d="M48.7,88.9c-0.1,0-0.1,0-0.2,0h-1c-0.1,0-0.2,0-0.2-0.1c-0.1,0-0.1-0.1,0-0.2l3.6-11.4c0-0.1,0.1-0.2,0.2-0.2h1.1
		c0.2,0,0.3,0.1,0.2,0.3l-3.6,11.4C48.8,88.8,48.8,88.9,48.7,88.9z"/>
	<path d="M65.2,83.7c0,0.1-0.1,0.1-0.1,0.1h-5.2v2.6c0,0.1-0.1,0.2-0.2,0.2h-1.2c-0.1,0-0.2-0.1-0.2-0.2v-2.6h-5.4
		c-0.1,0-0.1,0-0.1-0.1c0-0.1-0.1-0.1-0.1-0.1v-0.9c0-0.1,0-0.1,0.1-0.1c0,0,0.1-0.1,0.1-0.1h12.2c0,0,0.1,0,0.1,0.1
		c0,0,0.1,0.1,0.1,0.1v0.9C65.3,83.6,65.3,83.7,65.2,83.7z M59,81.4c-0.7,0-1.3-0.1-1.8-0.2c-0.5-0.1-1-0.3-1.4-0.5
		c-0.4-0.2-0.7-0.5-0.9-0.8c-0.2-0.3-0.3-0.7-0.3-1.1s0.1-0.8,0.3-1.1c0.2-0.3,0.5-0.6,0.9-0.8c0.4-0.2,0.9-0.4,1.4-0.5
		c0.5-0.1,1.1-0.2,1.8-0.2s1.3,0.1,1.8,0.2c0.5,0.1,1,0.3,1.4,0.5c0.4,0.2,0.7,0.5,0.9,0.8c0.2,0.3,0.3,0.7,0.3,1.1
		s-0.1,0.8-0.3,1.1c-0.2,0.3-0.5,0.6-0.9,0.8c-0.4,0.2-0.9,0.4-1.4,0.5C60.3,81.4,59.7,81.4,59,81.4z M63.7,89c0,0-0.1,0-0.1,0h-7.9
		c-0.4,0-0.7-0.1-0.8-0.2c-0.1-0.1-0.2-0.4-0.2-0.8v-3c0,0,0-0.1,0.1-0.1s0.1-0.1,0.1-0.1H56c0.1,0,0.1,0,0.1,0.1s0.1,0.1,0.1,0.1
		v2.4c0,0.1,0,0.2,0.1,0.2c0,0,0.1,0,0.2,0h7.1c0,0,0.1,0,0.1,0c0,0,0.1,0.1,0.1,0.1v1C63.8,88.9,63.8,89,63.7,89z M59,77.6
		c-0.4,0-0.8,0-1.1,0.1S57.3,77.8,57,78c-0.2,0.1-0.4,0.2-0.6,0.4c-0.1,0.2-0.2,0.3-0.2,0.5s0.1,0.4,0.2,0.5
		c0.1,0.2,0.3,0.3,0.6,0.4s0.5,0.2,0.9,0.3s0.7,0.1,1.1,0.1c0.4,0,0.8,0,1.1-0.1s0.6-0.1,0.9-0.3c0.2-0.1,0.4-0.2,0.6-0.4
		c0.1-0.2,0.2-0.3,0.2-0.5s-0.1-0.4-0.2-0.5c-0.1-0.2-0.3-0.3-0.6-0.4c-0.2-0.1-0.5-0.2-0.9-0.3S59.4,77.6,59,77.6z"/>
	<path d="M78.4,83.6c0,0-0.1,0.1-0.1,0.1H66.1c-0.1,0-0.1,0-0.1-0.1c0,0-0.1-0.1-0.1-0.1v-0.9c0-0.1,0.1-0.2,0.2-0.2h5.3v-1.7
		c0-0.1,0.1-0.2,0.2-0.2h1.1c0.1,0,0.1,0,0.1,0.1c0,0,0.1,0.1,0.1,0.1v1.7h5.3c0,0,0.1,0,0.1,0.1c0,0,0.1,0.1,0.1,0.1v0.9
		C78.5,83.5,78.4,83.5,78.4,83.6z M67.8,81.2c-0.2,0-0.3,0-0.4-0.1L67,80.2c0,0,0-0.1,0-0.2c0-0.1,0.1-0.1,0.1-0.1
		c0.7-0.2,1.2-0.4,1.8-0.6c0.5-0.2,0.9-0.5,1.3-0.8c0.4-0.3,0.6-0.6,0.8-1c0.2-0.4,0.3-0.8,0.4-1.3c0-0.1,0.1-0.2,0.3-0.2l1.1,0
		c0.1,0,0.2,0.1,0.2,0.2c0,0.1,0,0.2,0,0.3c0,0.1,0,0.2,0,0.3c0.1,0.4,0.4,0.7,0.7,1c0.3,0.3,0.7,0.6,1,0.8c0.4,0.3,0.8,0.5,1.3,0.7
		s0.9,0.3,1.4,0.5c0.1,0,0.1,0.1,0.1,0.1c0,0.1,0,0.1,0,0.1l-0.4,0.9c0,0.1-0.2,0.2-0.3,0.2c-0.4-0.1-0.8-0.2-1.2-0.3
		c-0.4-0.2-0.8-0.4-1.2-0.6c-0.4-0.2-0.8-0.5-1.1-0.8s-0.6-0.6-0.8-0.9c-0.4,0.6-1,1.2-1.8,1.6C69.6,80.6,68.8,80.9,67.8,81.2z
		 M76.6,87c0,0.8-0.4,1.4-1.1,1.8c-0.8,0.4-1.9,0.7-3.3,0.7s-2.5-0.2-3.3-0.7c-0.8-0.4-1.1-1-1.1-1.8c0-0.8,0.4-1.4,1.1-1.8
		c0.8-0.4,1.8-0.7,3.3-0.7s2.5,0.2,3.3,0.7C76.2,85.6,76.6,86.2,76.6,87z M72.2,85.7c-0.9,0-1.6,0.1-2.1,0.4
		c-0.5,0.2-0.7,0.5-0.7,0.9c0,0.3,0.2,0.6,0.7,0.9c0.5,0.2,1.2,0.4,2.1,0.4s1.6-0.1,2.1-0.4c0.5-0.2,0.7-0.5,0.7-0.9
		c0-0.3-0.2-0.6-0.7-0.9C73.8,85.9,73.1,85.7,72.2,85.7z"/>
</g>
<g id="그룹_4961" transform="translate(-1107 -1049)">
	<rect id="사각형_1846" x="1127" y="1059" class="st4" width="60" height="60"/>
	<g id="그룹_4953" transform="translate(-34.622 1570.14)">
		<path id="패스_727" d="M1211-481.4h-3.8l0-4.6h7.3c0.5,0,0.9-0.4,0.9-0.9c0,0,0,0,0,0v-6.2h-1.8v5.3h-6.4l0-8.5
			c0-1.4-0.5-2.7-1.5-3.6c-1-1-2.3-1.5-3.6-1.5h-20.8c-1.4,0-2.7,0.5-3.6,1.5c-1,1-1.5,2.3-1.5,3.6l0,8.5h-6.2v-6h-1.8v6.9
			c0,0.5,0.4,0.9,0.9,0.9l0,0h7.1l0,4.6h-3.7c-3,0-4.9,2.3-4.9,5.8v16.1h5.1c0.4,2.9,2.9,5,5.8,5c2.9,0,5.4-2.1,5.8-5h14.8
			c0.4,2.9,2.9,5,5.8,5c2.9,0,5.4-2.1,5.8-5h5.1v-16.1C1216-479.1,1214-481.4,1211-481.4z M1178.6-456.3c-1.9,0-3.6-1.3-4-3.2h8
			C1182.2-457.6,1180.5-456.3,1178.6-456.3L1178.6-456.3z M1205-456.3c-1.9,0-3.6-1.3-4-3.2h8C1208.6-457.6,1206.9-456.3,1205-456.3
			L1205-456.3z M1214.2-461.3h-44.7v-3.7h44.7V-461.3z M1169.4-466.8v-8.8c0-0.9,0.2-4,3.1-4h5.5l0-16.8c0-0.9,0.3-1.7,1-2.3
			c0.6-0.6,1.5-1,2.3-1h20.8c0.9,0,1.7,0.3,2.3,1c0.6,0.6,1,1.5,1,2.3l-0.1,16.8h5.6c2.9,0,3.1,3.1,3.1,4v8.8L1169.4-466.8z"/>
		<path id="패스_728" d="M1201.4-495.5h-19.2c-0.5,0-0.9,0.4-0.9,0.9c0,0,0,0,0,0v11c0,0.5,0.4,0.9,0.9,0.9l0,0h19.2
			c0.5,0,0.9-0.4,0.9-0.9c0,0,0,0,0,0v-11C1202.3-495.1,1201.9-495.5,1201.4-495.5z M1200.5-484.6h-17.4v-9.2h17.4V-484.6z"/>
		<path id="패스_729" d="M1170.1-501.2c-0.1-2.2,1.7-4,3.9-4.1h35.8c2.2,0.1,4,1.9,3.9,4.1v2.9h1.8v-2.9c0.1-3.2-2.5-5.8-5.7-5.9
			H1174c-3.2,0.1-5.8,2.7-5.7,5.9v2.9h1.8L1170.1-501.2z"/>
		<path id="패스_730" d="M1176.5-476.8c-2.1-0.1-4,1.5-4.1,3.6c-0.1,2.1,1.5,4,3.6,4.1c0.1,0,0.2,0,0.3,0c2,0,3.7-1.6,3.9-3.6l0,0
			C1180.3-474.8,1178.7-476.7,1176.5-476.8z M1176.1-470.9c-1.1-0.1-2-1.1-1.9-2.2c0.1-1.1,1-1.9,2.1-1.9c0,0,0.1,0,0.1,0
			c1.1,0.1,2,1.1,1.9,2.2C1178.3-471.7,1177.3-470.8,1176.1-470.9L1176.1-470.9z"/>
		<path id="패스_731" d="M1207.5-476.8c-2.1-0.1-4,1.5-4.1,3.6c-0.1,1,0.3,2,0.9,2.8c0.7,0.8,1.6,1.2,2.7,1.3c0.1,0,0.2,0,0.3,0
			c0.9,0,1.8-0.3,2.5-1c0.8-0.7,1.2-1.6,1.3-2.7C1211.3-474.8,1209.7-476.7,1207.5-476.8z M1209.3-472.8c0,0.5-0.3,1.1-0.7,1.4
			c-0.4,0.4-0.9,0.5-1.5,0.5c-0.5,0-1.1-0.3-1.4-0.7c-0.4-0.4-0.5-1-0.5-1.5c0.1-1.1,1-1.9,2.1-1.9c0,0,0.1,0,0.1,0
			C1208.6-474.9,1209.4-474,1209.3-472.8L1209.3-472.8z"/>
		<rect id="사각형_1833" x="1185.2" y="-474.1" width="13.2" height="1.8"/>
	</g>
</g>
</svg>
