<?xml version="1.0" encoding="utf-8"?>
<!-- Generator: Adobe Illustrator 24.3.0, SVG Export Plug-In . SVG Version: 6.00 Build 0)  -->
<svg version="1.1" id="Layer_1" xmlns="http://www.w3.org/2000/svg" xmlns:xlink="http://www.w3.org/1999/xlink" x="0px" y="0px"
	 viewBox="0 0 100 100" style="enable-background:new 0 0 100 100;" xml:space="preserve">
<style type="text/css">
	.st0{display:none;}
	.st1{display:inline;fill:none;}
	.st2{display:inline;}
	.st3{font-family:'NanumGothicBold';}
	.st4{font-size:14px;}
	.st5{fill:none;stroke:#000000;stroke-width:2;stroke-linecap:round;stroke-linejoin:round;}
	.st6{fill:none;}
</style>
<g id="그룹_4960" transform="translate(-989 -1049)" class="st0">
	<rect id="사각형_1842" x="1009" y="1058" class="st1" width="60" height="60"/>
	<path id="패스_741" class="st2" d="M1064.8,1065.7h-32.5v-4.7H1019v4.7h-5.1v9.9h5.1v30.1h-5.1v9h29.2v-9h-10.9v-30.1h12.2v5.4
		h6.3v4.6c-1.5,0.4-2.6,1.9-2.6,3.5c0,0.8,0.3,1.7,0.8,2.3c-2.5,1.1-4.2,3.5-4.2,6.3c0,3.8,3,6.8,6.8,6.8s6.8-3.1,6.8-6.8v-0.9h-1.8
		v0.9c0,2.8-2.2,5-5,5s-5-2.2-5-5s2.2-5,5-5h0.9v-0.1c1.7-0.3,2.9-1.8,2.9-3.5s-1.2-3.1-2.8-3.5v-4.6h6.7v-5.4h5.4L1064.8,1065.7z
		 M1053.7,1089.1c0,1-0.8,1.8-1.8,1.8s-1.8-0.8-1.8-1.8s0.8-1.8,1.8-1.8l0,0C1052.9,1087.3,1053.7,1088.1,1053.7,1089.1
		L1053.7,1089.1z M1030,1073.6l-9.1,9.1v-18.2L1030,1073.6z M1020.9,1086.1l9.1,9.1l-9.1,9.1V1086.1z M1021.7,1084.4l8.8-8.9v17.7
		L1021.7,1084.4z M1030.6,1071.7l-8.8-8.9h8.8V1071.7z M1015.8,1073.8v-6.3h3.3v6.3H1015.8z M1041.4,1107.6v5.4h-25.6v-5.4H1041.4
		L1041.4,1107.6z M1022,1105.8l8.6-8.6v8.6H1022z M1057.6,1079.2h-11.2v-3.6h11.2V1079.2z M1063,1073.8h-30.7v-6.3h30.7V1073.8z"/>
</g>
<text transform="matrix(1 0 0 1 37.2776 87.4676)" class="st3 st4">운송</text>
<g id="Group_5399" transform="translate(-871 -1049)" class="st0">
	<rect id="Rectangle_1843" x="891" y="1057.9" class="st1" width="60" height="60"/>
	<g id="Group_5402" transform="translate(558.47 59.5)" class="st2">
		<g id="Group_5401" transform="translate(318 992.5)">
			<rect id="Rectangle_2474" x="20" y="9.4" class="st5" width="49.1" height="34.3"/>
			<rect id="Rectangle_2475" x="25" y="14.4" class="st5" width="39.1" height="24.3"/>
			<g id="Group_5400" transform="translate(6.863)">
				<path id="Path_2467" class="st5" d="M20,8.9"/>
				<path id="Path_2468" class="st5" d="M55.3,8.9"/>
			</g>
			<path id="Rectangle_2476" class="st5" d="M32.5,26.7h10c2.2,0,4,1.8,4,4v4c0,2.2-1.8,4-4,4h-10c-2.2,0-4-1.8-4-4v-4
				C28.5,28.5,30.3,26.7,32.5,26.7z"/>
			<line id="Line_467" class="st5" x1="34.4" y1="38.7" x2="34.4" y2="26.7"/>
			<line id="Line_468" class="st5" x1="39.5" y1="38.7" x2="39.5" y2="26.7"/>
		</g>
		<line id="Line_469" class="st5" x1="356.1" y1="1036.2" x2="345.7" y2="1054.4"/>
		<line id="Line_470" class="st5" x1="369.2" y1="1036.2" x2="379.6" y2="1054.4"/>
	</g>
</g>
<g id="그룹_4961" transform="translate(-1107 -1049)">
	<rect id="사각형_1846" x="1127" y="1057.9" class="st6" width="60" height="60"/>
	<g id="그룹_4953" transform="translate(-34.622 1570.14)">
		<path id="패스_727" d="M1211-482.5h-3.8v-4.6h7.3c0.5,0,0.9-0.4,0.9-0.9l0,0v-6.2h-1.8v5.3h-6.4v-8.5c0-1.4-0.5-2.7-1.5-3.6
			c-1-1-2.3-1.5-3.6-1.5h-20.8c-1.4,0-2.7,0.5-3.6,1.5c-1,1-1.5,2.3-1.5,3.6v8.5h-6.2v-6h-1.8v6.9c0,0.5,0.4,0.9,0.9,0.9l0,0h7.1
			v4.6h-3.7c-3,0-4.9,2.3-4.9,5.8v16.1h5.1c0.4,2.9,2.9,5,5.8,5s5.4-2.1,5.8-5h14.8c0.4,2.9,2.9,5,5.8,5s5.4-2.1,5.8-5h5.1v-16.1
			C1216-480.2,1214-482.5,1211-482.5z M1178.6-457.4c-1.9,0-3.6-1.3-4-3.2h8C1182.2-458.7,1180.5-457.4,1178.6-457.4L1178.6-457.4z
			 M1205-457.4c-1.9,0-3.6-1.3-4-3.2h8C1208.6-458.7,1206.9-457.4,1205-457.4L1205-457.4z M1214.2-462.4h-44.7v-3.7h44.7V-462.4z
			 M1169.4-467.9v-8.8c0-0.9,0.2-4,3.1-4h5.5v-16.8c0-0.9,0.3-1.7,1-2.3c0.6-0.6,1.5-1,2.3-1h20.8c0.9,0,1.7,0.3,2.3,1
			c0.6,0.6,1,1.5,1,2.3l-0.1,16.8h5.6c2.9,0,3.1,3.1,3.1,4v8.8H1169.4z"/>
		<path id="패스_728" d="M1201.4-496.6h-19.2c-0.5,0-0.9,0.4-0.9,0.9l0,0v11c0,0.5,0.4,0.9,0.9,0.9l0,0h19.2
			c0.5,0,0.9-0.4,0.9-0.9l0,0v-11C1202.3-496.2,1201.9-496.6,1201.4-496.6z M1200.5-485.7h-17.4v-9.2h17.4V-485.7z"/>
		<path id="패스_729" d="M1170.1-502.4c-0.1-2.2,1.7-4,3.9-4.1h35.8c2.2,0.1,4,1.9,3.9,4.1v2.9h1.8v-2.9c0.1-3.2-2.5-5.8-5.7-5.9
			H1174c-3.2,0.1-5.8,2.7-5.7,5.9v2.9h1.8L1170.1-502.4z"/>
		<path id="패스_730" d="M1176.5-477.9c-2.1-0.1-4,1.5-4.1,3.6s1.5,4,3.6,4.1c0.1,0,0.2,0,0.3,0c2,0,3.7-1.6,3.9-3.6l0,0
			C1180.3-475.9,1178.7-477.8,1176.5-477.9z M1176.1-472c-1.1-0.1-2-1.1-1.9-2.2s1-1.9,2.1-1.9h0.1c1.1,0.1,2,1.1,1.9,2.2
			C1178.3-472.8,1177.3-471.9,1176.1-472L1176.1-472z"/>
		<path id="패스_731" d="M1207.5-477.9c-2.1-0.1-4,1.5-4.1,3.6c-0.1,1,0.3,2,0.9,2.8c0.7,0.8,1.6,1.2,2.7,1.3c0.1,0,0.2,0,0.3,0
			c0.9,0,1.8-0.3,2.5-1c0.8-0.7,1.2-1.6,1.3-2.7C1211.3-475.9,1209.7-477.8,1207.5-477.9z M1209.3-473.9c0,0.5-0.3,1.1-0.7,1.4
			c-0.4,0.4-0.9,0.5-1.5,0.5c-0.5,0-1.1-0.3-1.4-0.7c-0.4-0.4-0.5-1-0.5-1.5c0.1-1.1,1-1.9,2.1-1.9h0.1
			C1208.6-476.1,1209.4-475.1,1209.3-473.9L1209.3-473.9z"/>
		<rect id="사각형_1833" x="1185.2" y="-475.2" width="13.2" height="1.8"/>
	</g>
</g>
</svg>
